<mxfile host="65bd71144e">
    <diagram id="OpYoWyiaMdx67tb9CcD9" name="Page-1">
        <mxGraphModel dx="838" dy="777" grid="1" gridSize="10" guides="1" tooltips="1" connect="1" arrows="1" fold="1" page="1" pageScale="1" pageWidth="413" pageHeight="583" math="0" shadow="0">
            <root>
                <mxCell id="0"/>
                <mxCell id="1" parent="0"/>
                <mxCell id="2" value="Cluster" style="whiteSpace=wrap;html=1;aspect=fixed;verticalAlign=top;align=left;" parent="1" vertex="1">
                    <mxGeometry width="460" height="460" as="geometry"/>
                </mxCell>
                <object label="Namespace" id="11">
                    <mxCell parent="0"/>
                </object>
                <mxCell id="6" value="Namespace &quot;cluster-A&quot;" style="rounded=0;whiteSpace=wrap;html=1;fontColor=#000000;align=center;verticalAlign=top;fillColor=#FFFFCC;" parent="11" vertex="1">
                    <mxGeometry x="21" y="227" width="320" height="170" as="geometry"/>
                </mxCell>
                <mxCell id="14" style="edgeStyle=none;html=1;entryX=0.85;entryY=0.55;entryDx=0;entryDy=0;entryPerimeter=0;fontColor=#000000;" parent="11" source="13" target="4" edge="1">
                    <mxGeometry relative="1" as="geometry"/>
                </mxCell>
                <mxCell id="15" style="edgeStyle=none;html=1;fontColor=#000000;" parent="11" source="5" target="6" edge="1">
                    <mxGeometry relative="1" as="geometry"/>
                </mxCell>
                <object label="Resources" id="10">
                    <mxCell parent="0"/>
                </object>
                <mxCell id="5" value="" style="sketch=0;html=1;dashed=0;whitespace=wrap;fillColor=#2875E2;strokeColor=#ffffff;points=[[0.005,0.63,0],[0.1,0.2,0],[0.9,0.2,0],[0.5,0,0],[0.995,0.63,0],[0.72,0.99,0],[0.5,1,0],[0.28,0.99,0]];shape=mxgraph.kubernetes.icon;prIcon=ns;fontColor=#FFFFFF;whiteSpace=wrap;verticalAlign=bottom;align=center;" parent="10" vertex="1">
                    <mxGeometry x="146" y="160" width="70" height="40" as="geometry"/>
                </mxCell>
                <mxCell id="3" value="OpenShift Hive" style="aspect=fixed;perimeter=ellipsePerimeter;html=1;align=center;shadow=0;dashed=0;fontColor=#4277BB;labelBackgroundColor=#ffffff;fontSize=12;spacingTop=3;image;image=img/lib/ibm/management/cloud_management.svg;" parent="10" vertex="1">
                    <mxGeometry x="40" y="50" width="80" height="80" as="geometry"/>
                </mxCell>
                <mxCell id="4" value="" style="sketch=0;html=1;dashed=0;whitespace=wrap;fillColor=#2875E2;strokeColor=#ffffff;points=[[0.005,0.63,0],[0.1,0.2,0],[0.9,0.2,0],[0.5,0,0],[0.995,0.63,0],[0.72,0.99,0],[0.5,1,0],[0.28,0.99,0]];shape=mxgraph.kubernetes.icon;prIcon=secret;verticalAlign=bottom;fontColor=#000000;" parent="10" vertex="1">
                    <mxGeometry x="238.5" y="267" width="50" height="40" as="geometry"/>
                </mxCell>
                <mxCell id="7" value="&lt;span style=&quot;background-color: rgb(255 , 255 , 255)&quot;&gt;Secret cluster-a-xyzwy-admin-kubeconfig&lt;/span&gt;" style="rounded=0;whiteSpace=wrap;html=1;fontColor=#000000;" parent="10" vertex="1">
                    <mxGeometry x="207" y="317" width="113" height="60" as="geometry"/>
                </mxCell>
                <mxCell id="8" value="" style="sketch=0;html=1;dashed=0;whitespace=wrap;fillColor=#2875E2;strokeColor=#ffffff;points=[[0.005,0.63,0],[0.1,0.2,0],[0.9,0.2,0],[0.5,0,0],[0.995,0.63,0],[0.72,0.99,0],[0.5,1,0],[0.28,0.99,0]];shape=mxgraph.kubernetes.icon;prIcon=crd;fontColor=#000000;" parent="10" vertex="1">
                    <mxGeometry x="70" y="263" width="50" height="44" as="geometry"/>
                </mxCell>
                <mxCell id="9" value="ClusterDeployment &quot;cluster-a&quot;" style="rounded=0;whiteSpace=wrap;html=1;fontColor=#000000;" parent="10" vertex="1">
                    <mxGeometry x="40" y="317" width="110" height="60" as="geometry"/>
                </mxCell>
                <mxCell id="12" style="edgeStyle=none;html=1;entryX=0;entryY=0.5;entryDx=0;entryDy=0;fontColor=#000000;" parent="10" source="9" target="7" edge="1">
                    <mxGeometry relative="1" as="geometry"/>
                </mxCell>
                <mxCell id="13" value="Signing certificate &lt;br&gt;for cluster-a API" style="outlineConnect=0;dashed=0;verticalLabelPosition=bottom;verticalAlign=top;align=center;html=1;shape=mxgraph.aws3.certificate;fillColor=#5294CF;gradientColor=none;" parent="10" vertex="1">
                    <mxGeometry x="389" y="230" width="24.32" height="33" as="geometry"/>
                </mxCell>
            </root>
        </mxGraphModel>
    </diagram>
</mxfile>
